<?xml version="1.0" encoding="UTF-8" standalone="no"?>
<svg width="30px" height="30px" viewBox="0 0 60 60" version="1.1" xmlns="http://www.w3.org/2000/svg" xmlns:xlink="http://www.w3.org/1999/xlink">
    <!-- Generator: Sketch 40.1 (33804) - http://www.bohemiancoding.com/sketch -->
    <title>10 - Pencil (design, graphic, tool, solid)</title>
    <desc>Created with Sketch.</desc>
    <defs></defs>
    <g id="Page-1" stroke="none" stroke-width="1" fill="none" fill-rule="evenodd">
        <g id="Icons" transform="translate(-120.000000, -1797.000000)" fill="#9c27b0">
            <g id="Pencil" transform="translate(120.000000, 1797.000000)">
                <polyline id="Fill-1642" points="42.394 7.708 5.258 44.844 15.156 54.742 52.292 17.606 42.394 7.708"></polyline>
                <path d="M56.535,13.364 L57.95,11.949 C59.272,10.627 60,8.87 60,7 C60,5.13 59.272,3.373 57.95,2.051 C56.627,0.729 54.87,0 53,0 C51.13,0 49.373,0.729 48.05,2.051 L46.637,3.465 L56.535,13.364" id="Fill-1643"></path>
                <path d="M4.113,46.527 L0.066,58.669 C-0.054,59.028 0.04,59.425 0.308,59.692 C0.498,59.883 0.754,59.985 1.015,59.985 C1.121,59.985 1.227,59.969 1.331,59.934 L13.472,55.886 L4.113,46.527" id="Fill-1644"></path>
                <polyline id="Fill-1645" points="45.222 4.879 43.808 6.294 53.707 16.192 55.121 14.778 45.222 4.879"></polyline>
            </g>
        </g>
    </g>
</svg>